<svg width="51" height="51" viewBox="0 0 51 51" fill="none" xmlns="http://www.w3.org/2000/svg">
<rect width="51" height="51" rx="25.5" fill="#F1BF00"/>
<path d="M6.89631 36V14.1818H15.6321C17.2372 14.1818 18.576 14.4197 19.6484 14.8956C20.7209 15.3714 21.527 16.032 22.0668 16.8771C22.6065 17.7152 22.8764 18.6811 22.8764 19.7749C22.8764 20.6271 22.706 21.3764 22.3651 22.0227C22.0241 22.6619 21.5554 23.1875 20.9588 23.5994C20.3693 24.0043 19.6946 24.2919 18.9347 24.4624V24.6754C19.7656 24.7109 20.5433 24.9453 21.2678 25.3786C21.9993 25.8118 22.5923 26.419 23.0469 27.2003C23.5014 27.9744 23.7287 28.8977 23.7287 29.9702C23.7287 31.1278 23.4411 32.1612 22.8658 33.0703C22.2976 33.9723 21.456 34.6861 20.3409 35.2116C19.2259 35.7372 17.8516 36 16.218 36H6.89631ZM11.5092 32.2287H15.2699C16.5554 32.2287 17.4929 31.9837 18.0824 31.4936C18.6719 30.9964 18.9666 30.3359 18.9666 29.5121C18.9666 28.9084 18.821 28.3757 18.5298 27.9141C18.2386 27.4524 17.8232 27.0902 17.2834 26.8274C16.7507 26.5646 16.1151 26.4332 15.3764 26.4332H11.5092V32.2287ZM11.5092 23.3118H14.929C15.5611 23.3118 16.1222 23.2017 16.6122 22.9815C17.1094 22.7543 17.5 22.4347 17.7841 22.0227C18.0753 21.6108 18.2209 21.1172 18.2209 20.5419C18.2209 19.7536 17.9403 19.1179 17.3793 18.6349C16.8253 18.152 16.0369 17.9105 15.0142 17.9105H11.5092V23.3118ZM25.4519 14.1818H30.6188L35.5939 23.5781H35.807L40.7821 14.1818H45.949L37.9909 28.2869V36H33.41V28.2869L25.4519 14.1818Z" fill="#171717"/>
</svg>
